<svg width="10" height="20" viewBox="0 0 10 20" fill="none" xmlns="http://www.w3.org/2000/svg">
<path d="M0.243693 17.7442C0.0918941 17.9013 0.00789844 18.1118 0.00979713 18.3303C0.0116958 18.5488 0.0993368 18.7578 0.253844 18.9123C0.40835 19.0668 0.617361 19.1545 0.835858 19.1564C1.05436 19.1583 1.26486 19.0743 1.42203 18.9225L9.75536 10.5892C9.91159 10.4329 9.99935 10.221 9.99935 9.99999C9.99935 9.77902 9.91159 9.5671 9.75536 9.41083L1.42203 1.07749C1.26486 0.925695 1.05436 0.8417 0.835858 0.843598C0.617361 0.845497 0.40835 0.933138 0.253844 1.08764C0.0993368 1.24215 0.0116958 1.45116 0.00979713 1.66966C0.00789844 1.88816 0.0918941 2.09866 0.243693 2.25583L7.98786 9.99999L0.243693 17.7442Z" fill="#FFFBFB"/>
</svg>
