<svg width="24" height="24" viewBox="0 0 24 24" fill="none" xmlns="http://www.w3.org/2000/svg">
<path d="M12 0C5.38281 0 0 5.38281 0 12C0 18.6172 5.38281 24 12 24C18.6172 24 24 18.6172 24 12C24 5.38281 18.6172 0 12 0ZM12 2C17.5352 2 22 6.46484 22 12C22 17.5352 17.5352 22 12 22C6.46484 22 2 17.5352 2 12C2 6.46484 6.46484 2 12 2ZM7.5 8C6.67188 8 6 8.67188 6 9.5C6 10.3281 6.67188 11 7.5 11C8.32812 11 9 10.3281 9 9.5C9 8.67188 8.32812 8 7.5 8ZM16.5 8C15.6719 8 15 8.67188 15 9.5C15 10.3281 15.6719 11 16.5 11C17.3281 11 18 10.3281 18 9.5C18 8.67188 17.3281 8 16.5 8ZM6.8125 15L5.09375 16C6.47656 18.3867 9.04688 20 12 20C14.9531 20 17.5234 18.3867 18.9062 16L17.1875 15C16.1484 16.793 14.2266 18 12 18C9.77344 18 7.85156 16.793 6.8125 15Z" fill="#FF4B32"/>
</svg>
