<svg width="15" height="14" viewBox="0 0 15 14" fill="none" xmlns="http://www.w3.org/2000/svg">
<path d="M13.6392 0.277707C13.4511 0.286457 13.2739 0.341144 13.1164 0.402393H13.1143C12.9546 0.46583 12.1955 0.785201 11.0427 1.26863C9.88991 1.75425 8.39368 2.38424 6.90839 3.00986C3.94217 4.25891 1.02627 5.48827 1.02627 5.48827L1.06127 5.47515C1.06127 5.47515 0.86002 5.54077 0.650023 5.68514C0.542837 5.75514 0.424713 5.85139 0.321902 6.00233C0.219091 6.15326 0.135966 6.38513 0.166591 6.62357C0.216903 7.02825 0.4794 7.27106 0.667523 7.4045C0.857833 7.54012 1.03939 7.60356 1.03939 7.60356H1.04377L3.77811 8.52448C3.90061 8.91823 4.61154 11.2545 4.78216 11.7926C4.88279 12.1141 4.98122 12.3154 5.10372 12.4685C5.16278 12.5472 5.23278 12.6129 5.3159 12.6654C5.34872 12.6851 5.38372 12.7004 5.41872 12.7135C5.42965 12.7201 5.44059 12.7222 5.45372 12.7244L5.42528 12.7179C5.43403 12.7201 5.44059 12.7266 5.44715 12.7288C5.46903 12.7354 5.48434 12.7376 5.51278 12.7419C5.9459 12.8732 6.29371 12.6041 6.29371 12.6041L6.31339 12.5888L7.92775 11.1188L10.6337 13.1947L10.6949 13.221C11.2593 13.4682 11.8302 13.3304 12.1321 13.0876C12.4361 12.8426 12.5543 12.5297 12.5543 12.5297L12.5739 12.4794L14.6652 1.76738C14.7242 1.50269 14.7395 1.25551 14.6739 1.01489C14.6083 0.774264 14.4399 0.548954 14.2364 0.428643C14.0308 0.306144 13.8274 0.268957 13.6392 0.277707ZM13.5824 1.42613C13.5802 1.46113 13.5867 1.45676 13.5714 1.52457V1.53113L11.4999 12.1316C11.4911 12.1469 11.4758 12.1798 11.4343 12.2126C11.3905 12.2476 11.3555 12.2694 11.174 12.1973L7.86431 9.65978L5.86496 11.4819L6.28496 8.80011C6.28496 8.80011 11.4693 3.96798 11.6924 3.76017C11.9155 3.55236 11.8411 3.50861 11.8411 3.50861C11.8565 3.25486 11.5043 3.43423 11.5043 3.43423L4.68591 7.65824L4.68372 7.64731L1.41564 6.54701V6.54482C1.41345 6.54482 1.40908 6.54263 1.40689 6.54263C1.40908 6.54263 1.42439 6.53607 1.42439 6.53607L1.44189 6.52732L1.45939 6.52076C1.45939 6.52076 4.37748 5.2914 7.34369 4.04235C8.82899 3.41673 10.3252 2.78674 11.4758 2.30112C12.6264 1.81769 13.4774 1.46332 13.5255 1.44363C13.5714 1.42613 13.5496 1.42613 13.5824 1.42613Z" fill="white"/>
</svg>
