<svg width="14" height="13" viewBox="0 0 14 13" fill="none" xmlns="http://www.w3.org/2000/svg">
<path d="M12.9571 1.75847L13.8814 1.86641L13.4659 2.69908C13.2633 3.10514 13.0605 3.5112 12.8575 3.91726C12.8334 4.00326 12.7911 4.07866 12.7285 4.17682C12.7024 4.21784 12.613 4.34831 12.6089 4.35457C12.5853 4.38994 12.5678 4.41783 12.5553 4.44018V6.00068C12.5553 9.99379 8.69088 12.5313 5.04141 12.5313C4.29464 12.5313 3.72727 12.4955 3.07758 12.3537C2.00842 12.1204 1.21275 11.6566 0.848652 10.846L0.473798 10.0115L1.38478 9.92776C2.2089 9.85197 2.92343 9.69497 3.47215 9.48473C1.9657 9.24246 1.1215 8.58083 1.1215 7.33827V6.68495H1.77482C1.91837 6.68495 2.0478 6.6733 2.16352 6.65192C1.03291 5.97593 0.466618 4.8915 0.466618 3.38737C0.466495 3.32326 0.466495 3.32326 0.466109 3.25472C0.461862 2.49657 0.502584 2.09147 0.71013 1.57444C0.843144 1.24308 1.03541 0.936332 1.29417 0.655261L1.78718 0.119751L2.2665 0.667543C3.84609 2.47277 5.40754 3.56797 7.0018 3.70045C7.00861 2.03468 8.26753 0.774071 9.94187 0.774071C10.7224 0.774071 11.4305 1.07035 11.9869 1.60458C12.2914 1.66716 12.6148 1.7185 12.9571 1.75847ZM11.5127 2.8389L11.3124 2.79355L11.1741 2.64177C10.8396 2.27478 10.4198 2.08072 9.94187 2.08072C8.98608 2.08072 8.30842 2.76174 8.30842 3.71404C8.30842 3.86967 8.3044 3.96746 8.28501 4.09599C8.20765 4.60886 7.91998 5.02069 7.32842 5.02069C5.36972 5.02069 3.60267 3.97138 1.87955 2.17922C1.79072 2.44925 1.76982 2.72683 1.77274 3.2474C1.77313 3.31702 1.77313 3.31702 1.77327 3.38737C1.77327 4.72539 2.31534 5.45727 3.59882 5.86522L4.05425 6.00997V6.48785C4.05425 7.06734 3.50523 7.61284 2.70195 7.85717C3.07018 8.13655 3.82326 8.28732 5.04164 8.28732H5.69497V8.94064C5.69497 9.87669 4.61941 10.6096 2.99468 10.9923C3.52455 11.1546 4.23006 11.2246 5.04141 11.2246C8.05613 11.2246 11.2486 9.12833 11.2486 6.00068V4.36736C11.2486 4.17543 11.3043 4.00882 11.3967 3.8356C11.4328 3.76787 11.4726 3.7033 11.5217 3.62966C11.531 3.6158 11.5653 3.56556 11.5925 3.5254L11.6443 3.42185C11.7282 3.25405 11.8121 3.08625 11.8959 2.91845C11.7656 2.89377 11.6379 2.86725 11.5127 2.8389Z" fill="white"/>
</svg>
