<svg width="18" height="14" viewBox="0 0 18 14" fill="none" xmlns="http://www.w3.org/2000/svg">
<path d="M9 0.750168C6.64648 0.750168 4.56641 0.994308 3.29688 1.17986C2.24707 1.33366 1.3999 2.12468 1.20703 3.17204C1.04346 4.06316 0.875 5.36687 0.875 7.00017C0.875 8.63347 1.04346 9.93718 1.20703 10.8283C1.3999 11.8757 2.24707 12.6691 3.29688 12.8205C4.57129 13.006 6.65869 13.2502 9 13.2502C11.3413 13.2502 13.4287 13.006 14.7031 12.8205C15.7529 12.6691 16.6001 11.8757 16.793 10.8283C16.9565 9.93474 17.125 8.62859 17.125 7.00017C17.125 5.37175 16.959 4.0656 16.793 3.17204C16.6001 2.12468 15.7529 1.33366 14.7031 1.17986C13.4336 0.994308 11.3535 0.750168 9 0.750168ZM9 2.00017C11.2705 2.00017 13.2993 2.2321 14.5273 2.41032C15.0547 2.48845 15.4673 2.8864 15.5625 3.40642C15.7139 4.23161 15.875 5.45476 15.875 7.00017C15.875 8.54314 15.7139 9.76872 15.5625 10.5939C15.4673 11.1139 15.0571 11.5143 14.5273 11.59C13.2944 11.7682 11.2559 12.0002 9 12.0002C6.74414 12.0002 4.70312 11.7682 3.47266 11.59C2.94531 11.5143 2.53271 11.1139 2.4375 10.5939C2.28613 9.76872 2.125 8.54802 2.125 7.00017C2.125 5.44987 2.28613 4.23161 2.4375 3.40642C2.53271 2.8864 2.94287 2.48845 3.47266 2.41032C4.69824 2.2321 6.72949 2.00017 9 2.00017ZM8.0625 3.95329C7.64315 3.71741 7.125 4.02045 7.125 4.50159V9.49875C7.125 9.97989 7.64315 10.2829 8.0625 10.047L12.4375 7.54704C12.8563 7.30274 12.8563 6.6976 12.4375 6.45329L8.0625 3.95329ZM8.375 7.00017C8.375 6.36579 9.06113 5.96878 9.61112 6.28491C10.1629 6.6021 10.1629 7.39823 9.61112 7.71542C9.06113 8.03156 8.375 7.63455 8.375 7.00017Z" fill="white"/>
</svg>
